<svg width="280" height="35" viewBox="0 0 280 35" fill="none" xmlns="http://www.w3.org/2000/svg">
<path d="M0.2 10.84C0.2 10.2 0.2 9.56 0.2 8.92C0.2 8.25333 0.2 7.6 0.2 6.96C0.2 4.90667 0.493333 3.29333 1.08 2.12C1.66667 0.946665 2.69333 0.333332 4.16 0.279998L4.92 1.84C4.09333 1.92 3.52 2.32 3.2 3.04C2.90667 3.73333 2.76 4.84 2.76 6.36H4.88V10.84H0.2ZM7.24 10.84C7.24 10.2 7.24 9.56 7.24 8.92C7.24 8.25333 7.24 7.6 7.24 6.96C7.24 4.90667 7.53333 3.29333 8.12 2.12C8.70667 0.946665 9.73333 0.333332 11.2 0.279998L11.96 1.84C11.1333 1.92 10.56 2.32 10.24 3.04C9.94667 3.73333 9.8 4.84 9.8 6.36H11.92V10.84H7.24ZM11.635 34L18.515 1.6H22.875L29.795 34H25.515L24.035 25.84H17.435L15.875 34H11.635ZM18.035 22.6H23.435L20.715 8L18.035 22.6ZM43.2231 34V14.04H40.4631V10.88H43.2231V9.68C43.2231 8.24 43.3298 7.01333 43.5431 6C43.7831 4.96 44.2631 4.16 44.9831 3.6C45.7031 3.04 46.7831 2.76 48.2231 2.76C48.7565 2.76 49.2231 2.78667 49.6231 2.84C50.0498 2.86666 50.5165 2.93333 51.0231 3.04V6.16C50.7831 6.10667 50.5165 6.06667 50.2231 6.04C49.9298 5.98666 49.6631 5.96 49.4231 5.96C48.5965 5.96 48.0631 6.24 47.8231 6.8C47.6098 7.33333 47.5031 8.05333 47.5031 8.96V10.88H51.0231V14.04H47.5031V34H43.2231ZM53.4675 34V10.88H57.7475V14.16C58.6008 12.7467 59.4542 11.8 60.3075 11.32C61.1608 10.84 62.0142 10.6 62.8675 10.6C62.9742 10.6 63.0675 10.6 63.1475 10.6C63.2542 10.6 63.3875 10.6133 63.5475 10.64V15.36C63.2275 15.2267 62.8542 15.12 62.4275 15.04C62.0275 14.9333 61.6142 14.88 61.1875 14.88C60.5208 14.88 59.9075 15.04 59.3475 15.36C58.8142 15.6533 58.2808 16.24 57.7475 17.12V34H53.4675ZM66.4791 34V10.88H70.7591V34H66.4791ZM66.4791 7.44V2.96H70.7591V7.44H66.4791ZM81.7397 34.32C79.9264 34.32 78.5264 33.9733 77.5397 33.28C76.553 32.56 75.8597 31.52 75.4597 30.16C75.0864 28.7733 74.8997 27.08 74.8997 25.08V19.8C74.8997 17.7467 75.0997 16.04 75.4997 14.68C75.8997 13.32 76.593 12.2933 77.5797 11.6C78.593 10.9067 79.9797 10.56 81.7397 10.56C83.6864 10.56 85.113 10.96 86.0197 11.76C86.953 12.56 87.5664 13.72 87.8597 15.24C88.153 16.7333 88.2997 18.5333 88.2997 20.64V22.52H79.1797V27.16C79.1797 28.0933 79.2597 28.8533 79.4197 29.44C79.6064 30.0267 79.8864 30.4667 80.2597 30.76C80.6597 31.0267 81.1664 31.16 81.7797 31.16C82.4197 31.16 82.8997 31.0133 83.2197 30.72C83.5664 30.4 83.793 29.96 83.8997 29.4C84.033 28.8133 84.0997 28.1333 84.0997 27.36V25.96H88.2597V26.84C88.2597 29.16 87.7664 30.9867 86.7797 32.32C85.793 33.6533 84.113 34.32 81.7397 34.32ZM79.1797 20.2H84.0997V18.12C84.0997 17.16 84.0464 16.36 83.9397 15.72C83.833 15.0533 83.6064 14.56 83.2597 14.24C82.9397 13.8933 82.4197 13.72 81.6997 13.72C81.0064 13.72 80.473 13.88 80.0997 14.2C79.753 14.52 79.513 15.0667 79.3797 15.84C79.2464 16.5867 79.1797 17.6267 79.1797 18.96V20.2ZM92.1756 34V10.88H96.4556V13.16C97.229 12.44 98.0823 11.8267 99.0156 11.32C99.949 10.8133 100.976 10.56 102.096 10.56C103.029 10.56 103.736 10.8 104.216 11.28C104.722 11.76 105.069 12.36 105.256 13.08C105.469 13.8 105.576 14.5333 105.576 15.28V34H101.296V16.52C101.296 15.6933 101.176 15.0533 100.936 14.6C100.696 14.1467 100.202 13.92 99.4556 13.92C98.9756 13.92 98.469 14.0667 97.9356 14.36C97.429 14.6267 96.9356 14.96 96.4556 15.36V34H92.1756ZM115.114 34.32C113.167 34.32 111.714 33.6133 110.754 32.2C109.794 30.76 109.314 28.3333 109.314 24.92V20.44C109.314 18.68 109.46 17.0533 109.754 15.56C110.047 14.04 110.594 12.8267 111.394 11.92C112.22 11.0133 113.42 10.56 114.994 10.56C115.767 10.56 116.474 10.7333 117.114 11.08C117.754 11.4267 118.327 11.8533 118.834 12.36V1.6H123.114V34H118.834V32.52C118.327 33.0533 117.767 33.4933 117.154 33.84C116.567 34.16 115.887 34.32 115.114 34.32ZM116.194 30.96C116.594 30.96 117.02 30.8933 117.474 30.76C117.927 30.6 118.38 30.3733 118.834 30.08V14.92C118.46 14.6533 118.047 14.4267 117.594 14.24C117.14 14.0267 116.647 13.92 116.114 13.92C115.127 13.92 114.46 14.4 114.114 15.36C113.767 16.2933 113.594 17.4267 113.594 18.76V25.28C113.594 26.3467 113.647 27.32 113.754 28.2C113.887 29.0533 114.14 29.7333 114.514 30.24C114.887 30.72 115.447 30.96 116.194 30.96ZM136.87 34V10.88H141.15V34H136.87ZM136.87 7.44V2.96H141.15V7.44H136.87ZM145.73 34V10.88H150.01V13.16C150.784 12.44 151.637 11.8267 152.57 11.32C153.504 10.8133 154.53 10.56 155.65 10.56C156.584 10.56 157.29 10.8 157.77 11.28C158.277 11.76 158.624 12.36 158.81 13.08C159.024 13.8 159.13 14.5333 159.13 15.28V34H154.85V16.52C154.85 15.6933 154.73 15.0533 154.49 14.6C154.25 14.1467 153.757 13.92 153.01 13.92C152.53 13.92 152.024 14.0667 151.49 14.36C150.984 14.6267 150.49 14.96 150.01 15.36V34H145.73ZM172.449 34V10.88H176.729V13.16C177.502 12.44 178.356 11.8267 179.289 11.32C180.222 10.8133 181.249 10.56 182.369 10.56C183.302 10.56 184.009 10.8 184.489 11.28C184.996 11.76 185.342 12.36 185.529 13.08C185.742 13.8 185.849 14.5333 185.849 15.28V34H181.569V16.52C181.569 15.6933 181.449 15.0533 181.209 14.6C180.969 14.1467 180.476 13.92 179.729 13.92C179.249 13.92 178.742 14.0667 178.209 14.36C177.702 14.6267 177.209 14.96 176.729 15.36V34H172.449ZM196.427 34.32C194.614 34.32 193.214 33.9733 192.227 33.28C191.241 32.56 190.547 31.52 190.147 30.16C189.774 28.7733 189.587 27.08 189.587 25.08V19.8C189.587 17.7467 189.787 16.04 190.187 14.68C190.587 13.32 191.281 12.2933 192.267 11.6C193.281 10.9067 194.667 10.56 196.427 10.56C198.374 10.56 199.801 10.96 200.707 11.76C201.641 12.56 202.254 13.72 202.547 15.24C202.841 16.7333 202.987 18.5333 202.987 20.64V22.52H193.867V27.16C193.867 28.0933 193.947 28.8533 194.107 29.44C194.294 30.0267 194.574 30.4667 194.947 30.76C195.347 31.0267 195.854 31.16 196.467 31.16C197.107 31.16 197.587 31.0133 197.907 30.72C198.254 30.4 198.481 29.96 198.587 29.4C198.721 28.8133 198.787 28.1333 198.787 27.36V25.96H202.947V26.84C202.947 29.16 202.454 30.9867 201.467 32.32C200.481 33.6533 198.801 34.32 196.427 34.32ZM193.867 20.2H198.787V18.12C198.787 17.16 198.734 16.36 198.627 15.72C198.521 15.0533 198.294 14.56 197.947 14.24C197.627 13.8933 197.107 13.72 196.387 13.72C195.694 13.72 195.161 13.88 194.787 14.2C194.441 14.52 194.201 15.0667 194.067 15.84C193.934 16.5867 193.867 17.6267 193.867 18.96V20.2ZM213.263 34.32C211.45 34.32 210.05 33.9733 209.063 33.28C208.076 32.56 207.383 31.52 206.983 30.16C206.61 28.7733 206.423 27.08 206.423 25.08V19.8C206.423 17.7467 206.623 16.04 207.023 14.68C207.423 13.32 208.116 12.2933 209.103 11.6C210.116 10.9067 211.503 10.56 213.263 10.56C215.21 10.56 216.636 10.96 217.543 11.76C218.476 12.56 219.09 13.72 219.383 15.24C219.676 16.7333 219.823 18.5333 219.823 20.64V22.52H210.703V27.16C210.703 28.0933 210.783 28.8533 210.943 29.44C211.13 30.0267 211.41 30.4667 211.783 30.76C212.183 31.0267 212.69 31.16 213.303 31.16C213.943 31.16 214.423 31.0133 214.743 30.72C215.09 30.4 215.316 29.96 215.423 29.4C215.556 28.8133 215.623 28.1333 215.623 27.36V25.96H219.783V26.84C219.783 29.16 219.29 30.9867 218.303 32.32C217.316 33.6533 215.636 34.32 213.263 34.32ZM210.703 20.2H215.623V18.12C215.623 17.16 215.57 16.36 215.463 15.72C215.356 15.0533 215.13 14.56 214.783 14.24C214.463 13.8933 213.943 13.72 213.223 13.72C212.53 13.72 211.996 13.88 211.623 14.2C211.276 14.52 211.036 15.0667 210.903 15.84C210.77 16.5867 210.703 17.6267 210.703 18.96V20.2ZM229.059 34.32C227.112 34.32 225.659 33.6133 224.699 32.2C223.739 30.76 223.259 28.3333 223.259 24.92V20.44C223.259 18.68 223.406 17.0533 223.699 15.56C223.992 14.04 224.539 12.8267 225.339 11.92C226.166 11.0133 227.366 10.56 228.939 10.56C229.712 10.56 230.419 10.7333 231.059 11.08C231.699 11.4267 232.272 11.8533 232.779 12.36V1.6H237.059V34H232.779V32.52C232.272 33.0533 231.712 33.4933 231.099 33.84C230.512 34.16 229.832 34.32 229.059 34.32ZM230.139 30.96C230.539 30.96 230.966 30.8933 231.419 30.76C231.872 30.6 232.326 30.3733 232.779 30.08V14.92C232.406 14.6533 231.992 14.4267 231.539 14.24C231.086 14.0267 230.592 13.92 230.059 13.92C229.072 13.92 228.406 14.4 228.059 15.36C227.712 16.2933 227.539 17.4267 227.539 18.76V25.28C227.539 26.3467 227.592 27.32 227.699 28.2C227.832 29.0533 228.086 29.7333 228.459 30.24C228.832 30.72 229.392 30.96 230.139 30.96Z" fill="#0D0D0D"/>
</svg>
