<svg width="280" height="41" viewBox="0 0 280 41" fill="none" xmlns="http://www.w3.org/2000/svg">
<path d="M0.76 33L7.64 0.599998H12L18.92 33H14.64L13.16 24.84H6.56L5 33H0.76ZM7.16 21.6H12.56L9.84 7L7.16 21.6ZM27.2075 33.32C25.3142 33.32 23.7942 32.7333 22.6475 31.56C21.5008 30.36 20.8475 28.7867 20.6875 26.84L24.2475 25.76C24.4608 27.2267 24.8208 28.3333 25.3275 29.08C25.8342 29.8 26.5808 30.16 27.5675 30.16C28.3408 30.16 28.9275 29.9467 29.3275 29.52C29.7275 29.0667 29.9275 28.4667 29.9275 27.72C29.9275 27.0533 29.7808 26.4533 29.4875 25.92C29.1942 25.3867 28.7142 24.84 28.0475 24.28L24.0875 20.88C23.2875 20.1867 22.6075 19.4133 22.0475 18.56C21.5142 17.7067 21.2475 16.6 21.2475 15.24C21.2475 14.0133 21.4875 12.9867 21.9675 12.16C22.4742 11.3067 23.1675 10.6667 24.0475 10.24C24.9542 9.78667 26.0075 9.56 27.2075 9.56C29.1275 9.56 30.5942 10.16 31.6075 11.36C32.6208 12.5333 33.2075 13.96 33.3675 15.64L30.3275 16.72C30.2208 15.92 30.0608 15.2267 29.8475 14.64C29.6342 14.0267 29.3275 13.56 28.9275 13.24C28.5275 12.8933 28.0075 12.72 27.3675 12.72C26.6742 12.72 26.1142 12.96 25.6875 13.44C25.2875 13.8933 25.0875 14.44 25.0875 15.08C25.0875 15.48 25.1675 15.88 25.3275 16.28C25.5142 16.6533 25.8208 17.0267 26.2475 17.4L30.3275 21.16C30.8875 21.6667 31.4075 22.2133 31.8875 22.8C32.3942 23.3867 32.8075 24.0533 33.1275 24.8C33.4475 25.5467 33.6075 26.4133 33.6075 27.4C33.6075 28.7067 33.3408 29.8 32.8075 30.68C32.2742 31.56 31.5275 32.2267 30.5675 32.68C29.6075 33.1067 28.4875 33.32 27.2075 33.32ZM52.1091 33.32C50.9091 33.32 49.9357 33.0933 49.1891 32.64C48.4691 32.1867 47.9357 31.5467 47.5891 30.72C47.2691 29.8933 47.1091 28.92 47.1091 27.8V12.72H44.6691V9.88H47.1091V3.12H51.3891V9.88H55.1091V12.72H51.3891V27.52C51.3891 28.4267 51.5357 29.08 51.8291 29.48C52.1224 29.8533 52.6824 30.04 53.5091 30.04C53.7224 30.04 53.9624 30.0267 54.2291 30C54.5224 29.9733 54.8024 29.9467 55.0691 29.92V33.08C54.5357 33.16 54.0424 33.2133 53.5891 33.24C53.1357 33.2933 52.6424 33.32 52.1091 33.32ZM58.3738 33V0.599998H62.6538V12.28C63.4271 11.5333 64.2938 10.8933 65.2538 10.36C66.2138 9.82667 67.2804 9.56 68.4538 9.56C69.3604 9.56 70.0538 9.8 70.5338 10.28C71.0404 10.76 71.3871 11.36 71.5738 12.08C71.7871 12.8 71.8938 13.5333 71.8938 14.28V33H67.6138V15.52C67.6138 14.6933 67.4938 14.0533 67.2538 13.6C67.0138 13.1467 66.5204 12.92 65.7738 12.92C65.2671 12.92 64.7338 13.0667 64.1738 13.36C63.6404 13.6533 63.1338 14.0133 62.6538 14.44V33H58.3738ZM82.4663 33.32C80.6529 33.32 79.2529 32.9733 78.2663 32.28C77.2796 31.56 76.5863 30.52 76.1863 29.16C75.8129 27.7733 75.6263 26.08 75.6263 24.08V18.8C75.6263 16.7467 75.8263 15.04 76.2263 13.68C76.6263 12.32 77.3196 11.2933 78.3063 10.6C79.3196 9.90667 80.7063 9.56 82.4663 9.56C84.4129 9.56 85.8396 9.96 86.7463 10.76C87.6796 11.56 88.2929 12.72 88.5863 14.24C88.8796 15.7333 89.0263 17.5333 89.0263 19.64V21.52H79.9063V26.16C79.9063 27.0933 79.9863 27.8533 80.1463 28.44C80.3329 29.0267 80.6129 29.4667 80.9863 29.76C81.3863 30.0267 81.8929 30.16 82.5063 30.16C83.1463 30.16 83.6263 30.0133 83.9463 29.72C84.2929 29.4 84.5196 28.96 84.6263 28.4C84.7596 27.8133 84.8263 27.1333 84.8263 26.36V24.96H88.9863V25.84C88.9863 28.16 88.4929 29.9867 87.5063 31.32C86.5196 32.6533 84.8396 33.32 82.4663 33.32ZM79.9063 19.2H84.8263V17.12C84.8263 16.16 84.7729 15.36 84.6663 14.72C84.5596 14.0533 84.3329 13.56 83.9863 13.24C83.6663 12.8933 83.1463 12.72 82.4263 12.72C81.7329 12.72 81.1996 12.88 80.8263 13.2C80.4796 13.52 80.2396 14.0667 80.1063 14.84C79.9729 15.5867 79.9063 16.6267 79.9063 17.96V19.2ZM107.403 33.32C105.509 33.32 103.989 32.7333 102.843 31.56C101.696 30.36 101.043 28.7867 100.883 26.84L104.443 25.76C104.656 27.2267 105.016 28.3333 105.523 29.08C106.029 29.8 106.776 30.16 107.763 30.16C108.536 30.16 109.123 29.9467 109.523 29.52C109.923 29.0667 110.123 28.4667 110.123 27.72C110.123 27.0533 109.976 26.4533 109.683 25.92C109.389 25.3867 108.909 24.84 108.243 24.28L104.283 20.88C103.483 20.1867 102.803 19.4133 102.243 18.56C101.709 17.7067 101.443 16.6 101.443 15.24C101.443 14.0133 101.683 12.9867 102.163 12.16C102.669 11.3067 103.363 10.6667 104.243 10.24C105.149 9.78667 106.203 9.56 107.403 9.56C109.323 9.56 110.789 10.16 111.803 11.36C112.816 12.5333 113.403 13.96 113.563 15.64L110.523 16.72C110.416 15.92 110.256 15.2267 110.043 14.64C109.829 14.0267 109.523 13.56 109.123 13.24C108.723 12.8933 108.203 12.72 107.563 12.72C106.869 12.72 106.309 12.96 105.883 13.44C105.483 13.8933 105.283 14.44 105.283 15.08C105.283 15.48 105.363 15.88 105.523 16.28C105.709 16.6533 106.016 17.0267 106.443 17.4L110.523 21.16C111.083 21.6667 111.603 22.2133 112.083 22.8C112.589 23.3867 113.003 24.0533 113.323 24.8C113.643 25.5467 113.803 26.4133 113.803 27.4C113.803 28.7067 113.536 29.8 113.003 30.68C112.469 31.56 111.723 32.2267 110.763 32.68C109.803 33.1067 108.683 33.32 107.403 33.32ZM120.484 33.32C119.577 33.32 118.777 33.0667 118.084 32.56C117.39 32.0267 116.844 31.36 116.444 30.56C116.044 29.7333 115.844 28.8667 115.844 27.96C115.844 26.52 116.084 25.3067 116.564 24.32C117.044 23.3333 117.697 22.5067 118.524 21.84C119.377 21.1467 120.35 20.5467 121.444 20.04C122.564 19.5333 123.737 19.04 124.964 18.56V16.92C124.964 15.9867 124.91 15.2133 124.804 14.6C124.697 13.9867 124.47 13.5333 124.124 13.24C123.804 12.92 123.31 12.76 122.644 12.76C122.057 12.76 121.577 12.8933 121.204 13.16C120.857 13.4267 120.604 13.8133 120.444 14.32C120.284 14.8 120.204 15.3733 120.204 16.04V17.2L115.964 17.04C116.017 14.48 116.604 12.6 117.724 11.4C118.844 10.1733 120.577 9.56 122.924 9.56C125.217 9.56 126.844 10.1867 127.804 11.44C128.764 12.6933 129.244 14.5067 129.244 16.88V27.44C129.244 28.16 129.257 28.8533 129.284 29.52C129.337 30.1867 129.39 30.8133 129.444 31.4C129.524 31.96 129.59 32.4933 129.644 33H125.724C125.644 32.5733 125.537 32.04 125.404 31.4C125.297 30.7333 125.217 30.1333 125.164 29.6C124.897 30.5067 124.377 31.36 123.604 32.16C122.857 32.9333 121.817 33.32 120.484 33.32ZM122.164 29.64C122.59 29.64 122.99 29.52 123.364 29.28C123.737 29.04 124.07 28.7733 124.364 28.48C124.657 28.16 124.857 27.9067 124.964 27.72V21.16C124.297 21.5333 123.67 21.9067 123.084 22.28C122.497 22.6533 121.977 23.0533 121.524 23.48C121.097 23.88 120.75 24.3467 120.484 24.88C120.244 25.3867 120.124 25.9733 120.124 26.64C120.124 27.5733 120.297 28.3067 120.644 28.84C120.99 29.3733 121.497 29.64 122.164 29.64ZM132.933 38.8V35.52C133.973 35.52 134.799 35.4667 135.413 35.36C136.026 35.28 136.466 35.1067 136.733 34.84C136.999 34.6 137.133 34.2533 137.133 33.8C137.133 33.56 137.039 33.0267 136.853 32.2C136.666 31.3733 136.466 30.4933 136.253 29.56L131.613 9.88H135.933L139.053 27.16L142.053 9.88H146.373L140.853 34.28C140.613 35.4 140.173 36.28 139.533 36.92C138.893 37.5867 138.066 38.0667 137.053 38.36C136.066 38.6533 134.866 38.8 133.453 38.8H132.933ZM149.237 33V9.88H153.517V33H149.237ZM149.237 6.44V1.96H153.517V6.44H149.237ZM158.098 33V9.88H162.378V12.16C163.151 11.44 164.004 10.8267 164.938 10.32C165.871 9.81333 166.898 9.56 168.018 9.56C168.951 9.56 169.658 9.8 170.138 10.28C170.644 10.76 170.991 11.36 171.178 12.08C171.391 12.8 171.498 13.5333 171.498 14.28V33H167.218V15.52C167.218 14.6933 167.098 14.0533 166.858 13.6C166.617 13.1467 166.124 12.92 165.378 12.92C164.898 12.92 164.391 13.0667 163.858 13.36C163.351 13.6267 162.858 13.96 162.378 14.36V33H158.098ZM181.796 40.24C180.382 40.24 179.102 40.08 177.956 39.76C176.836 39.4667 175.942 39 175.276 38.36C174.636 37.72 174.316 36.88 174.316 35.84C174.316 35.04 174.502 34.3333 174.876 33.72C175.249 33.1333 175.729 32.6267 176.316 32.2C176.902 31.7733 177.516 31.44 178.156 31.2L180.156 31.48C179.809 31.8 179.476 32.1333 179.156 32.48C178.836 32.8 178.569 33.1333 178.356 33.48C178.142 33.8533 178.036 34.2533 178.036 34.68C178.036 35.3733 178.329 35.8933 178.916 36.24C179.529 36.5867 180.609 36.76 182.156 36.76C183.676 36.76 184.796 36.5733 185.516 36.2C186.262 35.8533 186.636 35.2933 186.636 34.52C186.636 34.04 186.542 33.64 186.356 33.32C186.169 33.0267 185.849 32.7867 185.396 32.6C184.942 32.4133 184.289 32.28 183.436 32.2L178.396 31.56C177.356 31.4267 176.582 31.0933 176.076 30.56C175.569 30.0267 175.316 29.44 175.316 28.8C175.316 27.84 175.582 27.0267 176.116 26.36C176.676 25.6933 177.422 24.9467 178.356 24.12L179.796 25.24C179.636 25.4533 179.436 25.76 179.196 26.16C178.956 26.5333 178.836 26.9067 178.836 27.28C178.836 27.5733 178.982 27.8133 179.276 28C179.596 28.1867 180.089 28.3067 180.756 28.36L184.636 28.72C186.449 28.88 187.796 29.4267 188.676 30.36C189.556 31.2933 189.996 32.6267 189.996 34.36C189.996 35.64 189.689 36.72 189.076 37.6C188.489 38.48 187.596 39.1333 186.396 39.56C185.196 40.0133 183.662 40.24 181.796 40.24ZM181.956 25.88C180.382 25.88 179.102 25.5333 178.116 24.84C177.129 24.1467 176.396 23.1867 175.916 21.96C175.462 20.7333 175.236 19.3333 175.236 17.76C175.236 15.9733 175.489 14.48 175.996 13.28C176.502 12.0533 177.249 11.1333 178.236 10.52C179.249 9.88 180.489 9.56 181.956 9.56C183.476 9.56 184.716 9.94667 185.676 10.72C186.636 11.4667 187.342 12.4667 187.796 13.72C188.249 14.9733 188.476 16.36 188.476 17.88C188.476 19.4533 188.262 20.8533 187.836 22.08C187.436 23.28 186.756 24.2133 185.796 24.88C184.862 25.5467 183.582 25.88 181.956 25.88ZM181.956 22.8C182.542 22.8 183.009 22.6933 183.356 22.48C183.702 22.24 183.956 21.9067 184.116 21.48C184.302 21.0533 184.422 20.5333 184.476 19.92C184.556 19.28 184.596 18.56 184.596 17.76C184.596 16.96 184.569 16.24 184.516 15.6C184.462 14.96 184.342 14.4267 184.156 14C183.969 13.5467 183.702 13.2 183.356 12.96C183.009 12.72 182.556 12.6 181.996 12.6C181.409 12.6 180.929 12.72 180.556 12.96C180.209 13.1733 179.929 13.5067 179.716 13.96C179.529 14.3867 179.396 14.92 179.316 15.56C179.262 16.2 179.236 16.9333 179.236 17.76C179.236 18.48 179.262 19.1467 179.316 19.76C179.396 20.3733 179.529 20.9067 179.716 21.36C179.902 21.8133 180.169 22.1733 180.516 22.44C180.889 22.68 181.369 22.8 181.956 22.8ZM187.676 13.76L186.676 12.16C186.889 11.7867 187.369 11.32 188.116 10.76C188.862 10.2 189.662 9.73333 190.516 9.36L191.636 12.16C191.262 12.24 190.756 12.3867 190.116 12.6C189.502 12.8133 188.942 13.04 188.436 13.28C187.929 13.4933 187.676 13.6533 187.676 13.76ZM208.593 40.24C207.179 40.24 205.899 40.08 204.753 39.76C203.633 39.4667 202.739 39 202.073 38.36C201.433 37.72 201.113 36.88 201.113 35.84C201.113 35.04 201.299 34.3333 201.673 33.72C202.046 33.1333 202.526 32.6267 203.113 32.2C203.699 31.7733 204.313 31.44 204.953 31.2L206.953 31.48C206.606 31.8 206.273 32.1333 205.953 32.48C205.633 32.8 205.366 33.1333 205.153 33.48C204.939 33.8533 204.833 34.2533 204.833 34.68C204.833 35.3733 205.126 35.8933 205.713 36.24C206.326 36.5867 207.406 36.76 208.953 36.76C210.473 36.76 211.593 36.5733 212.313 36.2C213.059 35.8533 213.433 35.2933 213.433 34.52C213.433 34.04 213.339 33.64 213.153 33.32C212.966 33.0267 212.646 32.7867 212.193 32.6C211.739 32.4133 211.086 32.28 210.233 32.2L205.193 31.56C204.153 31.4267 203.379 31.0933 202.873 30.56C202.366 30.0267 202.113 29.44 202.113 28.8C202.113 27.84 202.379 27.0267 202.913 26.36C203.473 25.6933 204.219 24.9467 205.153 24.12L206.593 25.24C206.433 25.4533 206.233 25.76 205.993 26.16C205.753 26.5333 205.633 26.9067 205.633 27.28C205.633 27.5733 205.779 27.8133 206.073 28C206.393 28.1867 206.886 28.3067 207.553 28.36L211.433 28.72C213.246 28.88 214.593 29.4267 215.473 30.36C216.353 31.2933 216.793 32.6267 216.793 34.36C216.793 35.64 216.486 36.72 215.873 37.6C215.286 38.48 214.393 39.1333 213.193 39.56C211.993 40.0133 210.459 40.24 208.593 40.24ZM208.753 25.88C207.179 25.88 205.899 25.5333 204.913 24.84C203.926 24.1467 203.193 23.1867 202.713 21.96C202.259 20.7333 202.033 19.3333 202.033 17.76C202.033 15.9733 202.286 14.48 202.793 13.28C203.299 12.0533 204.046 11.1333 205.033 10.52C206.046 9.88 207.286 9.56 208.753 9.56C210.273 9.56 211.513 9.94667 212.473 10.72C213.433 11.4667 214.139 12.4667 214.593 13.72C215.046 14.9733 215.273 16.36 215.273 17.88C215.273 19.4533 215.059 20.8533 214.633 22.08C214.233 23.28 213.553 24.2133 212.593 24.88C211.659 25.5467 210.379 25.88 208.753 25.88ZM208.753 22.8C209.339 22.8 209.806 22.6933 210.153 22.48C210.499 22.24 210.753 21.9067 210.913 21.48C211.099 21.0533 211.219 20.5333 211.273 19.92C211.353 19.28 211.393 18.56 211.393 17.76C211.393 16.96 211.366 16.24 211.313 15.6C211.259 14.96 211.139 14.4267 210.953 14C210.766 13.5467 210.499 13.2 210.153 12.96C209.806 12.72 209.353 12.6 208.793 12.6C208.206 12.6 207.726 12.72 207.353 12.96C207.006 13.1733 206.726 13.5067 206.513 13.96C206.326 14.3867 206.193 14.92 206.113 15.56C206.059 16.2 206.033 16.9333 206.033 17.76C206.033 18.48 206.059 19.1467 206.113 19.76C206.193 20.3733 206.326 20.9067 206.513 21.36C206.699 21.8133 206.966 22.1733 207.313 22.44C207.686 22.68 208.166 22.8 208.753 22.8ZM214.473 13.76L213.473 12.16C213.686 11.7867 214.166 11.32 214.913 10.76C215.659 10.2 216.459 9.73333 217.313 9.36L218.433 12.16C218.059 12.24 217.553 12.3867 216.913 12.6C216.299 12.8133 215.739 13.04 215.233 13.28C214.726 13.4933 214.473 13.6533 214.473 13.76ZM226.293 33.32C224.587 33.32 223.24 32.9733 222.253 32.28C221.267 31.5867 220.56 30.6 220.133 29.32C219.733 28.04 219.533 26.5333 219.533 24.8V18.08C219.533 16.3467 219.733 14.84 220.133 13.56C220.56 12.28 221.267 11.2933 222.253 10.6C223.24 9.90667 224.587 9.56 226.293 9.56C228 9.56 229.333 9.90667 230.293 10.6C231.28 11.2933 231.973 12.28 232.373 13.56C232.8 14.84 233.013 16.3467 233.013 18.08V24.8C233.013 26.5333 232.8 28.04 232.373 29.32C231.973 30.6 231.28 31.5867 230.293 32.28C229.333 32.9733 228 33.32 226.293 33.32ZM226.293 30.16C227.12 30.16 227.693 29.92 228.013 29.44C228.36 28.96 228.56 28.3333 228.613 27.56C228.693 26.76 228.733 25.9333 228.733 25.08V17.84C228.733 16.96 228.693 16.1333 228.613 15.36C228.56 14.5867 228.36 13.96 228.013 13.48C227.693 12.9733 227.12 12.72 226.293 12.72C225.467 12.72 224.88 12.9733 224.533 13.48C224.187 13.96 223.973 14.5867 223.893 15.36C223.84 16.1333 223.813 16.96 223.813 17.84V25.08C223.813 25.9333 223.84 26.76 223.893 27.56C223.973 28.3333 224.187 28.96 224.533 29.44C224.88 29.92 225.467 30.16 226.293 30.16ZM243.326 33.32C241.512 33.32 240.112 32.9733 239.126 32.28C238.139 31.56 237.446 30.52 237.046 29.16C236.672 27.7733 236.486 26.08 236.486 24.08V18.8C236.486 16.7467 236.686 15.04 237.086 13.68C237.486 12.32 238.179 11.2933 239.166 10.6C240.179 9.90667 241.566 9.56 243.326 9.56C245.272 9.56 246.699 9.96 247.606 10.76C248.539 11.56 249.152 12.72 249.446 14.24C249.739 15.7333 249.886 17.5333 249.886 19.64V21.52H240.766V26.16C240.766 27.0933 240.846 27.8533 241.006 28.44C241.192 29.0267 241.472 29.4667 241.846 29.76C242.246 30.0267 242.752 30.16 243.366 30.16C244.006 30.16 244.486 30.0133 244.806 29.72C245.152 29.4 245.379 28.96 245.486 28.4C245.619 27.8133 245.686 27.1333 245.686 26.36V24.96H249.846V25.84C249.846 28.16 249.352 29.9867 248.366 31.32C247.379 32.6533 245.699 33.32 243.326 33.32ZM240.766 19.2H245.686V17.12C245.686 16.16 245.632 15.36 245.526 14.72C245.419 14.0533 245.192 13.56 244.846 13.24C244.526 12.8933 244.006 12.72 243.286 12.72C242.592 12.72 242.059 12.88 241.686 13.2C241.339 13.52 241.099 14.0667 240.966 14.84C240.832 15.5867 240.766 16.6267 240.766 17.96V19.2ZM259.122 33.32C257.228 33.32 255.708 32.7333 254.562 31.56C253.415 30.36 252.762 28.7867 252.602 26.84L256.162 25.76C256.375 27.2267 256.735 28.3333 257.242 29.08C257.748 29.8 258.495 30.16 259.482 30.16C260.255 30.16 260.842 29.9467 261.242 29.52C261.642 29.0667 261.842 28.4667 261.842 27.72C261.842 27.0533 261.695 26.4533 261.402 25.92C261.108 25.3867 260.628 24.84 259.962 24.28L256.002 20.88C255.202 20.1867 254.522 19.4133 253.962 18.56C253.428 17.7067 253.162 16.6 253.162 15.24C253.162 14.0133 253.402 12.9867 253.882 12.16C254.388 11.3067 255.082 10.6667 255.962 10.24C256.868 9.78667 257.922 9.56 259.122 9.56C261.042 9.56 262.508 10.16 263.522 11.36C264.535 12.5333 265.122 13.96 265.282 15.64L262.242 16.72C262.135 15.92 261.975 15.2267 261.762 14.64C261.548 14.0267 261.242 13.56 260.842 13.24C260.442 12.8933 259.922 12.72 259.282 12.72C258.588 12.72 258.028 12.96 257.602 13.44C257.202 13.8933 257.002 14.44 257.002 15.08C257.002 15.48 257.082 15.88 257.242 16.28C257.428 16.6533 257.735 17.0267 258.162 17.4L262.242 21.16C262.802 21.6667 263.322 22.2133 263.802 22.8C264.308 23.3867 264.722 24.0533 265.042 24.8C265.362 25.5467 265.522 26.4133 265.522 27.4C265.522 28.7067 265.255 29.8 264.722 30.68C264.188 31.56 263.442 32.2267 262.482 32.68C261.522 33.1067 260.402 33.32 259.122 33.32ZM268.843 38.24L268.163 36.4C268.883 36.16 269.443 35.7333 269.843 35.12C270.269 34.5333 270.483 33.8267 270.483 33H268.203V28.4H272.603V32.92C272.603 34.3333 272.296 35.4533 271.683 36.28C271.069 37.1333 270.123 37.7867 268.843 38.24Z" fill="#0D0D0D"/>
</svg>
