<svg width="280" height="34" viewBox="0 0 280 34" fill="none" xmlns="http://www.w3.org/2000/svg">
<path d="M0.44 33V9.88H4.72V33H0.44ZM0.44 6.44V1.96H4.72V6.44H0.44ZM14.6606 33.32C12.7673 33.32 11.2473 32.7333 10.1006 31.56C8.95396 30.36 8.30063 28.7867 8.14063 26.84L11.7006 25.76C11.914 27.2267 12.274 28.3333 12.7806 29.08C13.2873 29.8 14.034 30.16 15.0206 30.16C15.794 30.16 16.3806 29.9467 16.7806 29.52C17.1806 29.0667 17.3806 28.4667 17.3806 27.72C17.3806 27.0533 17.234 26.4533 16.9406 25.92C16.6473 25.3867 16.1673 24.84 15.5006 24.28L11.5406 20.88C10.7406 20.1867 10.0606 19.4133 9.50063 18.56C8.96729 17.7067 8.70063 16.6 8.70063 15.24C8.70063 14.0133 8.94063 12.9867 9.42063 12.16C9.92729 11.3067 10.6206 10.6667 11.5006 10.24C12.4073 9.78667 13.4606 9.56 14.6606 9.56C16.5806 9.56 18.0473 10.16 19.0606 11.36C20.074 12.5333 20.6606 13.96 20.8206 15.64L17.7806 16.72C17.674 15.92 17.514 15.2267 17.3006 14.64C17.0873 14.0267 16.7806 13.56 16.3806 13.24C15.9806 12.8933 15.4606 12.72 14.8206 12.72C14.1273 12.72 13.5673 12.96 13.1406 13.44C12.7406 13.8933 12.5406 14.44 12.5406 15.08C12.5406 15.48 12.6206 15.88 12.7806 16.28C12.9673 16.6533 13.274 17.0267 13.7006 17.4L17.7806 21.16C18.3406 21.6667 18.8606 22.2133 19.3406 22.8C19.8473 23.3867 20.2606 24.0533 20.5806 24.8C20.9006 25.5467 21.0606 26.4133 21.0606 27.4C21.0606 28.7067 20.794 29.8 20.2606 30.68C19.7273 31.56 18.9806 32.2267 18.0206 32.68C17.0606 33.1067 15.9406 33.32 14.6606 33.32ZM36.8822 33.32C35.9755 33.32 35.1755 33.0667 34.4822 32.56C33.7889 32.0267 33.2422 31.36 32.8422 30.56C32.4422 29.7333 32.2422 28.8667 32.2422 27.96C32.2422 26.52 32.4822 25.3067 32.9622 24.32C33.4422 23.3333 34.0955 22.5067 34.9222 21.84C35.7755 21.1467 36.7489 20.5467 37.8422 20.04C38.9622 19.5333 40.1355 19.04 41.3622 18.56V16.92C41.3622 15.9867 41.3089 15.2133 41.2022 14.6C41.0955 13.9867 40.8689 13.5333 40.5222 13.24C40.2022 12.92 39.7089 12.76 39.0422 12.76C38.4555 12.76 37.9755 12.8933 37.6022 13.16C37.2555 13.4267 37.0022 13.8133 36.8422 14.32C36.6822 14.8 36.6022 15.3733 36.6022 16.04V17.2L32.3622 17.04C32.4155 14.48 33.0022 12.6 34.1222 11.4C35.2422 10.1733 36.9755 9.56 39.3222 9.56C41.6155 9.56 43.2422 10.1867 44.2022 11.44C45.1622 12.6933 45.6422 14.5067 45.6422 16.88V27.44C45.6422 28.16 45.6555 28.8533 45.6822 29.52C45.7355 30.1867 45.7889 30.8133 45.8422 31.4C45.9222 31.96 45.9889 32.4933 46.0422 33H42.1222C42.0422 32.5733 41.9355 32.04 41.8022 31.4C41.6955 30.7333 41.6155 30.1333 41.5622 29.6C41.2955 30.5067 40.7755 31.36 40.0022 32.16C39.2555 32.9333 38.2155 33.32 36.8822 33.32ZM38.5622 29.64C38.9889 29.64 39.3889 29.52 39.7622 29.28C40.1355 29.04 40.4689 28.7733 40.7622 28.48C41.0555 28.16 41.2555 27.9067 41.3622 27.72V21.16C40.6955 21.5333 40.0689 21.9067 39.4822 22.28C38.8955 22.6533 38.3755 23.0533 37.9222 23.48C37.4955 23.88 37.1489 24.3467 36.8822 24.88C36.6422 25.3867 36.5222 25.9733 36.5222 26.64C36.5222 27.5733 36.6955 28.3067 37.0422 28.84C37.3889 29.3733 37.8955 29.64 38.5622 29.64ZM60.27 33V13.04H57.51V9.88H60.27V8.68C60.27 7.24 60.3767 6.01333 60.59 5C60.83 3.96 61.31 3.16 62.03 2.6C62.75 2.04 63.83 1.76 65.27 1.76C65.8033 1.76 66.27 1.78667 66.67 1.84C67.0967 1.86666 67.5633 1.93333 68.07 2.04V5.16C67.83 5.10667 67.5633 5.06667 67.27 5.04C66.9767 4.98666 66.71 4.96 66.47 4.96C65.6433 4.96 65.11 5.24 64.87 5.8C64.6567 6.33333 64.55 7.05333 64.55 7.96V9.88H68.07V13.04H64.55V33H60.27ZM70.5144 33V9.88H74.7944V13.16C75.6477 11.7467 76.501 10.8 77.3544 10.32C78.2077 9.84 79.061 9.6 79.9144 9.6C80.021 9.6 80.1144 9.6 80.1944 9.6C80.301 9.6 80.4344 9.61333 80.5944 9.64V14.36C80.2744 14.2267 79.901 14.12 79.4744 14.04C79.0744 13.9333 78.661 13.88 78.2344 13.88C77.5677 13.88 76.9544 14.04 76.3944 14.36C75.861 14.6533 75.3277 15.24 74.7944 16.12V33H70.5144ZM83.5259 33V9.88H87.8059V33H83.5259ZM83.5259 6.44V1.96H87.8059V6.44H83.5259ZM98.7866 33.32C96.9732 33.32 95.5732 32.9733 94.5866 32.28C93.5999 31.56 92.9066 30.52 92.5066 29.16C92.1332 27.7733 91.9466 26.08 91.9466 24.08V18.8C91.9466 16.7467 92.1466 15.04 92.5466 13.68C92.9466 12.32 93.6399 11.2933 94.6266 10.6C95.6399 9.90667 97.0266 9.56 98.7866 9.56C100.733 9.56 102.16 9.96 103.067 10.76C104 11.56 104.613 12.72 104.907 14.24C105.2 15.7333 105.347 17.5333 105.347 19.64V21.52H96.2266V26.16C96.2266 27.0933 96.3066 27.8533 96.4666 28.44C96.6532 29.0267 96.9332 29.4667 97.3066 29.76C97.7066 30.0267 98.2132 30.16 98.8266 30.16C99.4666 30.16 99.9466 30.0133 100.267 29.72C100.613 29.4 100.84 28.96 100.947 28.4C101.08 27.8133 101.147 27.1333 101.147 26.36V24.96H105.307V25.84C105.307 28.16 104.813 29.9867 103.827 31.32C102.84 32.6533 101.16 33.32 98.7866 33.32ZM96.2266 19.2H101.147V17.12C101.147 16.16 101.093 15.36 100.987 14.72C100.88 14.0533 100.653 13.56 100.307 13.24C99.9866 12.8933 99.4666 12.72 98.7466 12.72C98.0532 12.72 97.5199 12.88 97.1466 13.2C96.7999 13.52 96.5599 14.0667 96.4266 14.84C96.2932 15.5867 96.2266 16.6267 96.2266 17.96V19.2ZM109.223 33V9.88H113.503V12.16C114.276 11.44 115.129 10.8267 116.063 10.32C116.996 9.81333 118.023 9.56 119.143 9.56C120.076 9.56 120.783 9.8 121.263 10.28C121.769 10.76 122.116 11.36 122.303 12.08C122.516 12.8 122.623 13.5333 122.623 14.28V33H118.343V15.52C118.343 14.6933 118.223 14.0533 117.983 13.6C117.742 13.1467 117.249 12.92 116.503 12.92C116.023 12.92 115.516 13.0667 114.983 13.36C114.476 13.6267 113.983 13.96 113.503 14.36V33H109.223ZM132.161 33.32C130.214 33.32 128.761 32.6133 127.801 31.2C126.841 29.76 126.361 27.3333 126.361 23.92V19.44C126.361 17.68 126.507 16.0533 126.801 14.56C127.094 13.04 127.641 11.8267 128.441 10.92C129.267 10.0133 130.467 9.56 132.041 9.56C132.814 9.56 133.521 9.73333 134.161 10.08C134.801 10.4267 135.374 10.8533 135.881 11.36V0.599998H140.161V33H135.881V31.52C135.374 32.0533 134.814 32.4933 134.201 32.84C133.614 33.16 132.934 33.32 132.161 33.32ZM133.241 29.96C133.641 29.96 134.067 29.8933 134.521 29.76C134.974 29.6 135.427 29.3733 135.881 29.08V13.92C135.507 13.6533 135.094 13.4267 134.641 13.24C134.187 13.0267 133.694 12.92 133.161 12.92C132.174 12.92 131.507 13.4 131.161 14.36C130.814 15.2933 130.641 16.4267 130.641 17.76V24.28C130.641 25.3467 130.694 26.32 130.801 27.2C130.934 28.0533 131.187 28.7333 131.561 29.24C131.934 29.72 132.494 29.96 133.241 29.96ZM153.917 33V9.88H158.197V33H153.917ZM153.917 6.44V1.96H158.197V6.44H153.917ZM162.777 33V9.88H167.057V12.16C167.831 11.44 168.684 10.8267 169.617 10.32C170.551 9.81333 171.577 9.56 172.697 9.56C173.631 9.56 174.337 9.8 174.817 10.28C175.324 10.76 175.671 11.36 175.857 12.08C176.071 12.8 176.177 13.5333 176.177 14.28V33H171.897V15.52C171.897 14.6933 171.777 14.0533 171.537 13.6C171.297 13.1467 170.804 12.92 170.057 12.92C169.577 12.92 169.071 13.0667 168.537 13.36C168.031 13.6267 167.537 13.96 167.057 14.36V33H162.777ZM185.715 33.32C183.769 33.32 182.315 32.6133 181.355 31.2C180.395 29.76 179.915 27.3333 179.915 23.92V19.44C179.915 17.68 180.062 16.0533 180.355 14.56C180.649 13.04 181.195 11.8267 181.995 10.92C182.822 10.0133 184.022 9.56 185.595 9.56C186.369 9.56 187.075 9.73333 187.715 10.08C188.355 10.4267 188.929 10.8533 189.435 11.36V0.599998H193.715V33H189.435V31.52C188.929 32.0533 188.369 32.4933 187.755 32.84C187.169 33.16 186.489 33.32 185.715 33.32ZM186.795 29.96C187.195 29.96 187.622 29.8933 188.075 29.76C188.529 29.6 188.982 29.3733 189.435 29.08V13.92C189.062 13.6533 188.649 13.4267 188.195 13.24C187.742 13.0267 187.249 12.92 186.715 12.92C185.729 12.92 185.062 13.4 184.715 14.36C184.369 15.2933 184.195 16.4267 184.195 17.76V24.28C184.195 25.3467 184.249 26.32 184.355 27.2C184.489 28.0533 184.742 28.7333 185.115 29.24C185.489 29.72 186.049 29.96 186.795 29.96ZM204.451 33.32C202.637 33.32 201.237 32.9733 200.251 32.28C199.264 31.56 198.571 30.52 198.171 29.16C197.797 27.7733 197.611 26.08 197.611 24.08V18.8C197.611 16.7467 197.811 15.04 198.211 13.68C198.611 12.32 199.304 11.2933 200.291 10.6C201.304 9.90667 202.691 9.56 204.451 9.56C206.397 9.56 207.824 9.96 208.731 10.76C209.664 11.56 210.277 12.72 210.571 14.24C210.864 15.7333 211.011 17.5333 211.011 19.64V21.52H201.891V26.16C201.891 27.0933 201.971 27.8533 202.131 28.44C202.317 29.0267 202.597 29.4667 202.971 29.76C203.371 30.0267 203.877 30.16 204.491 30.16C205.131 30.16 205.611 30.0133 205.931 29.72C206.277 29.4 206.504 28.96 206.611 28.4C206.744 27.8133 206.811 27.1333 206.811 26.36V24.96H210.971V25.84C210.971 28.16 210.477 29.9867 209.491 31.32C208.504 32.6533 206.824 33.32 204.451 33.32ZM201.891 19.2H206.811V17.12C206.811 16.16 206.757 15.36 206.651 14.72C206.544 14.0533 206.317 13.56 205.971 13.24C205.651 12.8933 205.131 12.72 204.411 12.72C203.717 12.72 203.184 12.88 202.811 13.2C202.464 13.52 202.224 14.0667 202.091 14.84C201.957 15.5867 201.891 16.6267 201.891 17.96V19.2ZM221.287 33.32C219.473 33.32 218.073 32.9733 217.087 32.28C216.1 31.56 215.407 30.52 215.007 29.16C214.633 27.7733 214.447 26.08 214.447 24.08V18.8C214.447 16.7467 214.647 15.04 215.047 13.68C215.447 12.32 216.14 11.2933 217.127 10.6C218.14 9.90667 219.527 9.56 221.287 9.56C223.233 9.56 224.66 9.96 225.567 10.76C226.5 11.56 227.113 12.72 227.407 14.24C227.7 15.7333 227.847 17.5333 227.847 19.64V21.52H218.727V26.16C218.727 27.0933 218.807 27.8533 218.967 28.44C219.153 29.0267 219.433 29.4667 219.807 29.76C220.207 30.0267 220.713 30.16 221.327 30.16C221.967 30.16 222.447 30.0133 222.767 29.72C223.113 29.4 223.34 28.96 223.447 28.4C223.58 27.8133 223.647 27.1333 223.647 26.36V24.96H227.807V25.84C227.807 28.16 227.313 29.9867 226.327 31.32C225.34 32.6533 223.66 33.32 221.287 33.32ZM218.727 19.2H223.647V17.12C223.647 16.16 223.593 15.36 223.487 14.72C223.38 14.0533 223.153 13.56 222.807 13.24C222.487 12.8933 221.967 12.72 221.247 12.72C220.553 12.72 220.02 12.88 219.647 13.2C219.3 13.52 219.06 14.0667 218.927 14.84C218.793 15.5867 218.727 16.6267 218.727 17.96V19.2ZM237.083 33.32C235.136 33.32 233.683 32.6133 232.723 31.2C231.763 29.76 231.283 27.3333 231.283 23.92V19.44C231.283 17.68 231.429 16.0533 231.723 14.56C232.016 13.04 232.563 11.8267 233.363 10.92C234.189 10.0133 235.389 9.56 236.963 9.56C237.736 9.56 238.443 9.73333 239.083 10.08C239.723 10.4267 240.296 10.8533 240.803 11.36V0.599998H245.083V33H240.803V31.52C240.296 32.0533 239.736 32.4933 239.123 32.84C238.536 33.16 237.856 33.32 237.083 33.32ZM238.163 29.96C238.563 29.96 238.989 29.8933 239.443 29.76C239.896 29.6 240.349 29.3733 240.803 29.08V13.92C240.429 13.6533 240.016 13.4267 239.562 13.24C239.109 13.0267 238.616 12.92 238.083 12.92C237.096 12.92 236.429 13.4 236.083 14.36C235.736 15.2933 235.563 16.4267 235.563 17.76V24.28C235.563 25.3467 235.616 26.32 235.723 27.2C235.856 28.0533 236.109 28.7333 236.483 29.24C236.856 29.72 237.416 29.96 238.163 29.96ZM249.218 11.2L248.458 9.6C249.284 9.54667 249.844 9.16 250.138 8.44C250.458 7.72 250.618 6.61333 250.618 5.12H248.498V0.599998H253.178C253.178 1.24 253.178 1.89333 253.178 2.56C253.178 3.2 253.178 3.84 253.178 4.48C253.178 6.56 252.884 8.18667 252.298 9.36C251.711 10.5067 250.684 11.12 249.218 11.2ZM255.098 11.2L254.338 9.6C255.164 9.54667 255.724 9.16 256.018 8.44C256.338 7.72 256.498 6.61333 256.498 5.12H254.378V0.599998H259.058C259.058 1.24 259.058 1.89333 259.058 2.56C259.058 3.2 259.058 3.84 259.058 4.48C259.058 6.56 258.764 8.18667 258.178 9.36C257.591 10.5067 256.564 11.12 255.098 11.2ZM262.226 33V28.24H266.506V33H262.226Z" fill="#0D0D0D"/>
</svg>
