<svg width="44" height="93" viewBox="0 0 44 93" fill="none" xmlns="http://www.w3.org/2000/svg">
<path d="M22.1099 92.6795C15.1979 92.6795 9.90722 90.7169 6.23788 86.7915C2.56855 82.8662 0.733887 77.3195 0.733887 70.1515V23.0475C0.733887 15.8795 2.56855 10.3329 6.23788 6.40753C9.90722 2.4822 15.1979 0.519531 22.1099 0.519531C29.0219 0.519531 34.3125 2.4822 37.9819 6.40753C41.6512 10.3329 43.4859 15.8795 43.4859 23.0475V70.1515C43.4859 77.3195 41.6512 82.8662 37.9819 86.7915C34.3125 90.7169 29.0219 92.6795 22.1099 92.6795ZM22.1099 79.8795C26.9739 79.8795 29.4059 76.9355 29.4059 71.0475V22.1515C29.4059 16.2635 26.9739 13.3195 22.1099 13.3195C17.2459 13.3195 14.8139 16.2635 14.8139 22.1515V71.0475C14.8139 76.9355 17.2459 79.8795 22.1099 79.8795Z" fill="#1F1818"/>
</svg>
