<svg width="45" height="91" viewBox="0 0 45 91" fill="none" xmlns="http://www.w3.org/2000/svg">
<path d="M0.655762 0.919922H21.9038C29.1571 0.919922 34.4478 2.62659 37.7758 6.03992C41.1038 9.36792 42.7678 14.5306 42.7678 21.5279V25.1119C42.7678 29.7199 41.9998 33.4746 40.4638 36.3759C39.0131 39.2773 36.7518 41.3679 33.6798 42.6479V42.9039C40.6771 45.2933 44.1758 51.5226 44.1758 61.5919V69.2719C44.1758 76.1839 42.3411 81.4746 38.6718 85.1439C35.0878 88.7279 29.7971 90.5199 22.7998 90.5199H0.655762V0.919922ZM20.2398 37.3999C23.0558 37.3999 25.1464 36.6746 26.5117 35.2239C27.9624 33.7733 28.6878 31.3413 28.6878 27.9279V22.9359C28.6878 19.6933 28.0904 17.3466 26.8958 15.8959C25.7864 14.4453 23.9944 13.7199 21.5198 13.7199H14.7357V37.3999H20.2398ZM22.7998 77.7199C25.2744 77.7199 27.1091 77.0799 28.3038 75.7999C29.4984 74.4346 30.0958 72.1306 30.0958 68.8879V61.0799C30.0958 56.9839 29.3704 54.1679 27.9198 52.6319C26.5544 51.0106 24.2504 50.1999 21.0078 50.1999H14.7357V77.7199H22.7998Z" fill="#1F1818"/>
</svg>
